{"title":"Azhar 2016 Hindi DvDScr (1CD) x264 AAC - Hon3y","uid":14616685,"size":735023956,"categoryP":"video","categoryS":"movies","magnet":"?xt=urn:btih:8e42fa1ea2475db8a09c03121494bdca9020ef4b&amp;dn=Azhar+2016+Hindi+DvDScr+%281CD%29+x264+AAC+-+Hon3y&amp;tr=udp%3A%2F%2Ftracker.leechers-paradise.org%3A6969&amp;tr=udp%3A%2F%2Fzer0day.ch%3A1337&amp;tr=udp%3A%2F%2Fopen.demonii.com%3A1337&amp;tr=udp%3A%2F%2Ftracker.coppersurfer.tk%3A6969&amp;tr=udp%3A%2F%2Fexodus.desync.com%3A6969","seeders":1,"leechers":0,"uploader":"CDRiPD","files":3,"time":1463206003,"description":"Azhar 2016 Hindi DvDScr (1CD) x264 AAC - Hon3y\r\n\r\n\r\nFormat                                   : Matroska\r\nFormat version                           : Version 4 / Version 2\r\nFile size                                : 697 MiB\r\nDuration                                 : 2h 10mn\r\nOverall bit rate                         : 750 Kbps\r\n\r\nVideo\r\nID                                       : 1\r\nFormat                                   : AVC\r\nFormat/Info                              : Advanced Video Codec\r\nFormat profile                           :   \r\nFormat settings, CABAC                   : Yes\r\nFormat settings, ReFrames                : 5 frames\r\nCodec ID                                 : V_MPEG4/ISO/AVC\r\nDuration                                 : 2h 10mn\r\nBit rate                                 : 669 Kbps\r\nWidth                                    : 640 pixels\r\nHeight                                   : 272 pixels\r\nDisplay aspect ratio                     : 2.35:1\r\nFrame rate mode                          : Constant\r\nFrame rate                               : 23.976 (24000/1001) fps\r\nColor space                              : YUV\r\nChroma subsampling                       : 4:2:0\r\nBit depth                                : 8 bits\r\nScan type                                : Progressive\r\nBits/(Pixel*Frame)                       : 0.160\r\nStream size                              : 621 MiB (89%)\r\nWriting library                          : x264 core 148 r2638 7599210\r\n\r\nAudio\r\nID                                       : 2\r\nFormat                                   : AAC\r\nFormat/Info                              : Advanced Audio Codec\r\nFormat profile                           : LC\r\nCodec ID                                 : A_AAC\r\nDuration                                 : 2h 10mn\r\nBit rate                                 : 80.0 Kbps\r\nChannel(s)                               : 2 channels\r\nChannel positions                        : Front: L R\r\nSampling rate                            : 44.1 KHz\r\nFrame rate                               : 43.066 fps (1024 spf)\r\nCompression mode                         : Lossy\r\nDelay relative to video                  : 10ms\r\nStream size                              : 74.4 MiB (11%)\r\nLanguage                                 : Hindi\r\n\r\nScreen Shots:\r\n\r\n \nhttps://ititli.com/XPT \nhttps://ititli.com/XPW \nhttps://ititli.com/XPg \nhttps://ititli.com/XPn \nhttps://ititli.com/XPw \nhttps://ititli.com/XP2 \nhttps://ititli.com/XP6 \nhttps://ititli.com/XP8 \nhttps://ititli.com/XPe \nhttps://ititli.com/XPj \nhttps://ititli.com/XPk \nhttps://ititli.com/XPo","torrent":{"xt":"urn:btih:8e42fa1ea2475db8a09c03121494bdca9020ef4b","amp;dn":"Azhar+2016+Hindi+DvDScr+%281CD%29+x264+AAC+-+Hon3y","amp;tr":["udp%3A%2F%2Ftracker.leechers-paradise.org%3A6969","udp%3A%2F%2Fzer0day.ch%3A1337","udp%3A%2F%2Fopen.demonii.com%3A1337","udp%3A%2F%2Ftracker.coppersurfer.tk%3A6969","udp%3A%2F%2Fexodus.desync.com%3A6969"],"infoHash":"8e42fa1ea2475db8a09c03121494bdca9020ef4b","infoHashBuffer":{"type":"Buffer","data":[142,66,250,30,162,71,93,184,160,156,3,18,20,148,189,202,144,32,239,75]},"announce":[],"urlList":[]}}